<?xml version="1.0" standalone="no"?>
<!DOCTYPE svg PUBLIC "-//W3C//DTD SVG 20010904//EN"
 "http://www.w3.org/TR/2001/REC-SVG-20010904/DTD/svg10.dtd">
<svg version="1.0" xmlns="http://www.w3.org/2000/svg"
 width="500.000000pt" height="500.000000pt" viewBox="0 0 500.000000 500.000000"
 preserveAspectRatio="xMidYMid meet">

<g transform="translate(0.000000,500.000000) scale(0.100000,-0.100000)"
fill="#000000" stroke="none">
<path d="M2273 4868 c-11 -15 -35 -76 -88 -223 -38 -105 -74 -193 -87 -211 -6
-9 -51 -24 -201 -66 -44 -13 -69 -4 -131 47 -195 163 -299 245 -309 245 -7 0
-32 -14 -57 -30 -25 -16 -49 -30 -54 -30 -5 0 -17 -6 -25 -14 -9 -8 -54 -35
-101 -59 -47 -25 -92 -56 -102 -69 -18 -26 -18 -32 25 -258 14 -74 28 -154 32
-176 l6 -42 -91 -88 c-51 -49 -97 -92 -105 -96 -12 -8 -76 1 -195 28 -36 7
-107 20 -159 28 -51 8 -95 17 -98 20 -14 13 -45 -20 -89 -96 -26 -46 -70 -116
-96 -156 -26 -41 -48 -81 -48 -91 0 -18 26 -52 145 -186 39 -44 90 -105 114
-135 41 -52 42 -56 36 -105 -4 -27 -13 -65 -21 -84 -8 -18 -14 -46 -14 -61 0
-39 -27 -67 -85 -89 -265 -101 -321 -121 -336 -121 -9 0 -27 -8 -40 -18 -22
-18 -22 -25 -23 -193 -1 -96 2 -186 7 -201 6 -20 22 -31 70 -49 34 -13 73 -29
87 -36 14 -7 31 -13 37 -13 7 0 52 -15 100 -34 49 -19 105 -37 125 -41 33 -5
39 -10 48 -43 5 -20 10 -42 10 -49 0 -7 6 -32 14 -55 43 -137 44 -119 -9 -184
-79 -100 -158 -194 -213 -257 -29 -33 -50 -67 -48 -74 3 -7 23 -39 44 -71 21
-31 58 -93 81 -138 54 -105 75 -128 110 -119 14 4 70 13 125 21 54 8 117 19
140 25 22 7 59 13 81 14 22 2 54 6 72 10 31 7 38 2 126 -81 52 -49 97 -95 101
-103 7 -15 -32 -241 -59 -342 -8 -30 -15 -74 -15 -96 0 -40 2 -42 58 -73 31
-18 66 -40 77 -50 24 -20 193 -110 208 -110 13 0 93 60 236 180 157 130 167
135 221 107 14 -7 57 -21 95 -31 86 -23 111 -37 119 -71 4 -15 20 -54 36 -88
32 -69 60 -150 60 -173 0 -19 57 -126 73 -136 16 -10 369 -10 385 1 18 11 56
94 86 189 31 96 71 203 85 230 10 19 62 39 180 69 60 15 60 31 -1 129 -30 49
-75 123 -100 164 -25 41 -72 120 -105 175 -33 55 -102 172 -152 260 -118 203
-224 383 -271 460 -21 33 -54 92 -75 130 -21 39 -52 90 -70 115 -17 25 -42 67
-55 93 -24 48 -24 49 -6 80 63 108 68 121 62 170 -8 77 -52 147 -111 179 -68
37 -179 40 -242 6 -64 -35 -129 -148 -124 -217 2 -41 48 -125 88 -163 37 -35
120 -59 182 -51 43 5 50 3 65 -18 33 -46 106 -164 106 -172 0 -4 15 -31 34
-60 43 -67 135 -221 211 -352 127 -221 291 -492 316 -523 10 -14 19 -37 19
-53 0 -33 -25 -43 -140 -55 -166 -17 -379 -5 -554 32 -145 30 -376 135 -540
246 -107 71 -293 242 -333 305 -9 15 -31 46 -49 68 -89 113 -170 274 -222 440
-55 176 -67 259 -67 465 0 241 25 369 111 579 78 187 143 288 293 457 182 204
464 381 714 448 31 9 81 23 110 31 28 8 108 22 177 31 231 30 497 -1 715 -82
39 -15 86 -32 105 -40 102 -38 294 -157 420 -260 64 -52 167 -164 235 -257 75
-102 175 -293 215 -412 54 -160 68 -231 80 -419 9 -130 8 -174 -4 -240 -8 -45
-17 -104 -20 -132 -9 -73 -76 -273 -130 -384 -63 -131 -223 -360 -251 -360
-13 0 -65 69 -65 86 0 3 -15 29 -33 57 -19 29 -46 75 -62 102 -15 28 -57 96
-92 153 -36 57 -69 118 -76 135 -6 18 -25 52 -43 77 -18 25 -67 106 -110 180
-90 159 -168 291 -201 341 -24 37 -31 93 -12 105 18 11 59 112 59 144 0 16 -9
54 -21 85 -37 99 -136 154 -254 140 -69 -8 -112 -30 -151 -82 -39 -52 -53 -99
-46 -162 13 -134 110 -211 265 -211 57 0 58 0 83 -42 13 -24 49 -83 79 -133
29 -49 73 -124 96 -165 23 -41 52 -89 64 -105 13 -17 44 -74 71 -125 26 -52
58 -106 70 -120 13 -14 34 -50 48 -82 14 -31 29 -59 35 -62 5 -3 28 -41 51
-84 24 -42 48 -84 55 -92 7 -8 50 -82 96 -165 45 -82 100 -177 121 -209 22
-33 48 -76 58 -95 10 -20 27 -44 37 -54 19 -17 22 -15 89 56 38 40 81 81 96
91 25 16 31 17 70 3 24 -8 99 -25 168 -36 69 -12 149 -26 178 -31 29 -5 59 -7
66 -4 22 8 206 307 206 334 0 10 -35 58 -78 107 -141 160 -233 276 -228 287
13 32 55 176 60 207 7 39 24 50 95 65 19 3 65 19 102 35 37 16 74 29 81 29 7
0 29 9 49 19 19 11 55 25 78 32 75 22 77 30 70 235 -3 98 -9 187 -13 196 -4 9
-22 20 -39 24 -18 3 -75 22 -127 41 -273 99 -300 113 -300 153 0 11 -11 53
-25 94 -14 41 -25 86 -25 100 0 17 37 68 122 168 176 206 193 228 182 243 -31
42 -102 154 -153 242 -23 40 -46 75 -52 78 -11 7 -82 -3 -282 -41 -208 -39
-193 -42 -298 62 -83 82 -89 91 -89 129 0 22 7 62 15 89 8 27 15 68 15 90 0
23 9 75 20 116 11 41 20 92 20 112 0 42 -21 63 -107 103 -30 15 -95 51 -144
81 -49 30 -94 54 -99 54 -5 0 -67 -46 -136 -102 -156 -127 -244 -193 -265
-201 -9 -3 -28 1 -43 8 -14 8 -47 17 -73 20 -27 4 -66 15 -88 26 -34 16 -45
28 -67 81 -15 35 -36 90 -46 123 -35 106 -94 250 -106 257 -6 4 -99 8 -207 8
-146 0 -199 -3 -206 -12z m572 -1867 c109 -50 131 -158 50 -241 -44 -45 -91
-57 -153 -41 -38 11 -71 43 -101 99 -30 57 17 148 94 183 50 23 60 23 110 0z
m-769 -440 c48 -22 104 -89 104 -124 0 -96 -101 -178 -195 -157 -64 15 -107
61 -120 133 -12 62 49 139 125 158 39 10 42 10 86 -10z"/>
<path d="M1950 3531 c-107 -33 -174 -119 -174 -226 -1 -53 3 -67 35 -115 49
-74 121 -113 206 -110 32 1 63 2 70 1 6 0 26 -25 43 -53 17 -29 45 -75 62
-103 17 -27 46 -78 64 -112 19 -34 44 -77 56 -96 13 -19 43 -70 68 -112 96
-165 137 -232 173 -288 21 -32 44 -71 50 -85 14 -32 86 -157 132 -227 17 -27
45 -75 62 -105 16 -30 47 -83 69 -117 21 -33 51 -83 66 -110 15 -26 52 -88 82
-138 30 -49 68 -115 85 -146 16 -31 41 -69 54 -85 13 -16 28 -40 32 -53 4 -14
55 -104 112 -200 58 -97 123 -207 146 -246 23 -38 51 -84 64 -101 13 -17 23
-34 23 -39 0 -18 107 -185 121 -190 20 -7 46 3 52 19 6 15 5 18 -95 186 -43
71 -78 132 -78 135 0 4 -29 50 -64 104 -36 53 -84 134 -108 178 -24 44 -86
151 -138 237 -105 174 -143 239 -195 336 -20 36 -53 92 -75 125 -22 33 -45 71
-52 85 -12 24 -79 140 -178 305 -26 44 -62 107 -80 140 -47 85 -101 175 -126
210 -12 17 -36 57 -54 90 -17 33 -44 81 -60 107 -16 26 -44 73 -61 105 -18 32
-52 88 -75 124 -54 84 -84 144 -84 164 0 9 14 37 32 61 59 83 45 215 -31 288
-52 50 -163 77 -231 57z m168 -115 c36 -34 37 -36 37 -106 0 -71 0 -72 -42
-111 -38 -35 -47 -39 -95 -39 -120 0 -191 106 -139 207 31 63 65 82 139 83 57
0 65 -3 100 -34z"/>
</g>
</svg>
